# xmcd
#
# Track frame offsets: 
#        150
#        16448
#        30360
#        45471
#        66128
#        82992
#        101700
#        118445
#        139758
#        157839
#        175457
#        192104
#
# Disc length: 2791 seconds
#
# Revision: 0
# Processed by: cddbd v1.5.1PL0 Copyright (c) Steve Scherf et al.
# Submitted via: ExactAudioCopy v0.95a5
#
DISCID=980ae50c
DTITLE=Blue - Guilty
DYEAR=1900
DGENRE=Blues
TTITLE0=Stand Up
TTITLE1=Bubblin
TTITLE2=Rock The Night
TTITLE3=Breathe Easy
TTITLE4=Guilty
TTITLE5=When Summer's Gone
TTITLE6=Where You Want Me
TTITLE7=Walk Away
TTITLE8=How A Man's Supposed To Change ?
TTITLE9=No Goodbyes
TTITLE10=Sorry Seems To Be The Hardest World (Feat. Elton John)
TTITLE11=U Make Me Wanna
EXTD=
EXTT0=
EXTT1=
EXTT2=
EXTT3=
EXTT4=
EXTT5=
EXTT6=
EXTT7=
EXTT8=
EXTT9=
EXTT10=
EXTT11=
PLAYORDER=
